# xmcd
#
# Track frame offsets:
#	183
#	19605
#	36438
#	50358
#	66670
#	80613
#	94025
#	106358
#	121308
#	133055
#	142600
#	157193
#	174220
#	188213
#	199008
#	215025
#	228638
#	239743
#	252030
#	269345
#	282998
#	295705
#	312573
#	326538
#
# Disc length: 4548 seconds
#
# Revision: 3
# Processed by: cddbd v1.4b41PL1 Copyright (c) Steve Scherf et al.
# Submitted via: CDmax 1.7.6
#
DISCID=6c11c218
DTITLE=Various Artist - The Best Of New British Country Declaration of Indepe
DTITLE=ndence
DYEAR=1900
DGENRE=
TTITLE0=The Hollywood Cowboys - Lost Highway
TTITLE1=Lynda Hayes - Can Can Do
TTITLE2=Glen Mitchell and The Troubleshooters - I Looked A Little Closer
TTITLE3=Greta and The Stray Shots - I Didn't Mean To Do It
TTITLE4=Plain Loco - Wasting My Time
TTITLE5=Well Oiled Sisters - Mouth
TTITLE6=Hank Wangford and The Lost Cowboys - Divorce Over Easy
TTITLE7=The Stu Page Band - Raising Heaven
TTITLE8=MG Greaves and The Lonesome Too - Rio Grande
TTITLE9=Lemon Grass - Truck Off The Road
TTITLE10=Julie De Jongh - Someone To Watch Over Me
TTITLE11=Ricky Cool and The Western Swing All Stars - Cherokee Boogie
TTITLE12=The Rockingbirds - Bitter Tear
TTITLE13=Trading With The Natives - In All The Right Places
TTITLE14=Paradise Canyon - Emma
TTITLE15=The Haley Sisters - Sisters - Best Of Friends
TTITLE16=52 Pick-Up - Go The Hog
TTITLE17=Los Pistoleros - Blood On The Honky Tonk Floor
TTITLE18=Wishbone - Dixie's In Alabama
TTITLE19=Reg Meuross - Ring Around The Roses
TTITLE20=Kenny Johnson and Northwind - Hard Luck Story Line
TTITLE21=Cross Country - Ride On
TTITLE22=Those Magnificent Men - I'm Smoking Again
TTITLE23=Syd Newman and Pick Of The Bunch - Thank You For The Memories
EXTD=
EXTT0=
EXTT1=
EXTT2=
EXTT3=
EXTT4=
EXTT5=
EXTT6=
EXTT7=
EXTT8=
EXTT9=
EXTT10=
EXTT11=
EXTT12=
EXTT13=
EXTT14=
EXTT15=
EXTT16=
EXTT17=
EXTT18=
EXTT19=
EXTT20=
EXTT21=
EXTT22=
EXTT23=
PLAYORDER=
